<?xml version="1.0" encoding="utf-8"?>
<!-- Generator: Adobe Illustrator 16.0.4, SVG Export Plug-In . SVG Version: 6.00 Build 0)  -->
<!DOCTYPE svg PUBLIC "-//W3C//DTD SVG 1.1//EN" "http://www.w3.org/Graphics/SVG/1.1/DTD/svg11.dtd">
<svg version="1.1" id="Layer_1" xmlns="http://www.w3.org/2000/svg" xmlns:xlink="http://www.w3.org/1999/xlink" x="0px" y="0px"
	 width="173.334px" height="92.667px" viewBox="0 0 173.334 92.667" enable-background="new 0 0 173.334 92.667"
	 xml:space="preserve">
<path fill="#ffffff" d="M158.779,42.691L89.795,10.464c-1.943-0.902-4.311-0.904-6.262,0l-68.98,32.227
	c-1.422,0.662-2.34,2.09-2.34,3.637c0,1.545,0.918,2.971,2.338,3.633l68.984,32.228c0.971,0.453,2.053,0.691,3.129,0.691
	c1.078,0,2.162-0.238,3.135-0.691l68.979-32.228c1.424-0.66,2.344-2.088,2.344-3.633C161.121,44.779,160.201,43.353,158.779,42.691z
	 M157.799,47.865L88.818,80.09c-1.33,0.621-2.971,0.621-4.305,0L15.531,47.865c-0.609-0.285-1.004-0.889-1.004-1.537
	c0-0.652,0.395-1.256,1.004-1.539l68.98-32.225c0.668-0.311,1.412-0.475,2.152-0.475c0.742,0,1.488,0.164,2.154,0.473l68.982,32.227
	c0.609,0.283,1.006,0.887,1.006,1.539C158.807,46.986,158.422,47.574,157.799,47.865z M86.482,44.824
	c-2.889-0.929-4.129-1.742-3.912-3.08c0.199-1.331,1.641-1.252,3.035-1.143c1.383,0.122,2.508,0.426,3.33,0.698
	c0.021,0.006,0.055-0.005,0.066-0.051c0.088-0.495,0.348-1.781,0.418-2.226c0.004-0.046-0.039-0.078-0.066-0.086
	c-1.605-0.431-3.08-0.718-4.809-0.718c-0.08,0-0.162,0.007-0.25,0.007c-3.445,0.062-5.039,1.448-5.248,4.341
	c-0.109,1.696,1.062,3.556,3.494,4.365c2.428,0.809,4.164,1.264,3.92,2.763c-0.223,1.27-1.719,1.414-3.348,1.319
	c-1.428-0.082-2.621-0.427-3.52-0.697c-0.059-0.021-0.104,0.014-0.115,0.07c-0.07,0.521-0.258,1.854-0.326,2.32
	c0,0.063,0.047,0.122,0.08,0.122c1.117,0.271,3.121,0.647,5.545,0.647c3.307,0,5.01-1.416,5.211-4.126
	C90.145,47.233,89.148,45.68,86.482,44.824z M69.512,38.235c-4.496,0-6.945,2.95-6.945,7.69c0,4.751,2.449,7.701,6.945,7.701
	c4.477,0,6.938-2.95,6.938-7.701C76.449,41.115,74.059,38.235,69.512,38.235z M69.512,51.195c-3.049,0-3.475-2.528-3.475-5.27
	c0-2.719,0.426-5.251,3.475-5.251c3.043,0,3.457,2.533,3.457,5.251C72.969,48.667,72.555,51.195,69.512,51.195z M49.916,38.561
	c-0.057,0-0.096,0.042-0.096,0.092v14.473c0,0.055,0.039,0.092,0.096,0.092h3.322c0.049,0,0.092-0.037,0.092-0.092v-5.417
	c0-0.042,0.043-0.089,0.096-0.089h5.752c0.055,0,0.102-0.044,0.102-0.099V45.28c0-0.053-0.047-0.096-0.102-0.096h-5.752
	c-0.053,0-0.096-0.042-0.096-0.101v-3.998c0-0.055,0.043-0.098,0.096-0.098h6.559c0.049,0,0.092-0.042,0.092-0.095v-2.241
	c-0.008-0.05-0.131-0.092-0.176-0.092H49.916z M124.654,50.747h-5.66c-0.055,0-0.094-0.044-0.094-0.102l-0.004-11.981
	c0-0.062-0.037-0.099-0.098-0.099h-3.414c-0.047,0-0.098,0.037-0.098,0.099v14.461c0,0.053,0.051,0.092,0.098,0.092h9.162
	c0.055,0,0.215-0.039,0.219-0.092v-2.277C124.766,50.797,124.705,50.747,124.654,50.747z M111.004,38.541h-3.422
	c-0.062,0-0.096,0.044-0.096,0.1v14.485c0,0.053,0.033,0.092,0.096,0.092h3.422c0.053,0,0.094-0.039,0.094-0.092V38.641
	C111.098,38.585,111.057,38.541,111.004,38.541z M100.158,44.824c-2.875-0.929-4.131-1.742-3.92-3.08
	c0.207-1.331,1.65-1.252,3.049-1.143c1.385,0.122,2.514,0.426,3.334,0.698c0.016,0.006,0.062-0.005,0.072-0.051
	c0.074-0.495,0.332-1.781,0.41-2.226c0.008-0.046-0.041-0.078-0.068-0.086c-1.607-0.431-3.078-0.718-4.805-0.718
	c-0.09,0-0.172,0.007-0.262,0.007c-3.445,0.062-5.039,1.448-5.24,4.341c-0.107,1.696,1.057,3.556,3.486,4.365
	c2.441,0.809,4.174,1.264,3.92,2.763c-0.219,1.27-1.717,1.414-3.342,1.319c-1.42-0.082-2.621-0.427-3.523-0.697
	c-0.062-0.021-0.105,0.014-0.121,0.07c-0.064,0.521-0.254,1.854-0.316,2.32c0,0.063,0.053,0.122,0.07,0.122
	c1.131,0.271,3.111,0.647,5.557,0.647c3.303,0,5.021-1.416,5.215-4.126C103.826,47.233,102.834,45.68,100.158,44.824z"/>
</svg>
